<svg width="16" height="17" viewBox="0 0 16 17" fill="none" xmlns="http://www.w3.org/2000/svg">
<g id="ic:round-plus">
<path id="Vector" d="M12 9.16533H8.66665V12.4987C8.66665 12.6755 8.59641 12.845 8.47138 12.9701C8.34636 13.0951 8.17679 13.1653 7.99998 13.1653C7.82317 13.1653 7.6536 13.0951 7.52858 12.9701C7.40355 12.845 7.33331 12.6755 7.33331 12.4987V9.16533H3.99998C3.82317 9.16533 3.6536 9.0951 3.52858 8.97007C3.40355 8.84505 3.33331 8.67548 3.33331 8.49867C3.33331 8.32186 3.40355 8.15229 3.52858 8.02726C3.6536 7.90224 3.82317 7.832 3.99998 7.832H7.33331V4.49867C7.33331 4.32186 7.40355 4.15229 7.52858 4.02726C7.6536 3.90224 7.82317 3.832 7.99998 3.832C8.17679 3.832 8.34636 3.90224 8.47138 4.02726C8.59641 4.15229 8.66665 4.32186 8.66665 4.49867V7.832H12C12.1768 7.832 12.3464 7.90224 12.4714 8.02726C12.5964 8.15229 12.6666 8.32186 12.6666 8.49867C12.6666 8.67548 12.5964 8.84505 12.4714 8.97007C12.3464 9.0951 12.1768 9.16533 12 9.16533Z" fill="white"/>
</g>
</svg>
